<svg width="250" height="101" viewBox="0 0 250 101" fill="none" xmlns="http://www.w3.org/2000/svg">
<path d="M247.049 98.2556C248.175 70.8354 248.402 56.349 220.663 52.7822C206.766 50.9953 199.5 55.2665 195.198 67.1955C192.338 75.1255 204.936 77.6563 207.871 69.5187C211.701 58.8997 211.188 47.0139 204.92 37.1164C190.28 14.0022 150.072 19.7634 130.115 29.1161C122.186 32.8321 114.701 48.6033 128.522 46.021C138.283 44.1971 138.387 28.6133 134.976 21.88C119.527 -8.62212 82.7245 5.05449 59.7158 15.8377C51.9846 19.461 36.0731 28.4433 31.2312 35.1549C27.3067 40.5948 21.3788 15.8328 25.5095 28.4719C27.8999 35.786 33.8347 47.3138 41.1646 50.9728C44.7003 52.7378 22.5228 49.9373 18.9266 50.1943C12.8928 50.6255 -1.37413 52.5299 4.86265 46.8701C10.0265 42.184 18.0309 33.9458 20.2799 27.7096" stroke="#FEFEFE" stroke-width="5" stroke-linecap="round"/>
</svg>
