<svg width="120" height="41" viewBox="0 0 120 41" fill="none" xmlns="http://www.w3.org/2000/svg">
<rect x="0.5" y="0.64917" width="119" height="39.7018" rx="6.5" fill="#0F0F0F"/>
<rect x="0.5" y="0.64917" width="119" height="39.7018" rx="6.5" stroke="#A6A6A6"/>
<path d="M81.5267 19.6871V22.0183H80.0906V23.5471H81.5267V28.7416C81.5267 30.5154 82.3152 31.2249 84.2991 31.2249C84.6478 31.2249 84.9798 31.1826 85.2703 31.132V29.6201C85.0213 29.6454 84.8636 29.6623 84.5896 29.6623C83.7015 29.6623 83.3113 29.24 83.3113 28.2771V23.5471H85.2703V22.0183H83.3113V19.6871H81.5267Z" fill="white"/>
<path d="M90.3242 31.3516C92.9638 31.3516 94.5825 29.5525 94.5825 26.5709C94.5825 23.6062 92.9555 21.7987 90.3242 21.7987C87.6845 21.7987 86.0576 23.6062 86.0576 26.5709C86.0576 29.5525 87.6762 31.3516 90.3242 31.3516ZM90.3242 29.7383C88.7719 29.7383 87.9003 28.5811 87.9003 26.5709C87.9003 24.5775 88.7719 23.4119 90.3242 23.4119C91.8681 23.4119 92.748 24.5775 92.748 26.5709C92.748 28.5727 91.8681 29.7383 90.3242 29.7383Z" fill="white"/>
<path d="M95.9674 31.1742H97.752V25.7432C97.752 24.4509 98.7066 23.5809 100.06 23.5809C100.375 23.5809 100.906 23.64 101.056 23.6907V21.9C100.865 21.8494 100.524 21.824 100.259 21.824C99.0802 21.824 98.0758 22.4828 97.8184 23.3866H97.6856V21.9761H95.9674V31.1742Z" fill="white"/>
<path d="M105.487 23.3444C106.807 23.3444 107.67 24.2819 107.712 25.7263H103.146C103.246 24.2904 104.167 23.3444 105.487 23.3444ZM107.703 28.6909C107.371 29.4089 106.633 29.8059 105.553 29.8059C104.126 29.8059 103.204 28.7839 103.146 27.1706V27.0692H109.53V26.4358C109.53 23.5471 108.01 21.7987 105.495 21.7987C102.947 21.7987 101.328 23.6653 101.328 26.6047C101.328 29.544 102.914 31.3516 105.504 31.3516C107.571 31.3516 109.015 30.338 109.422 28.6909H107.703Z" fill="white"/>
<path d="M69.8231 27.7775C69.9607 30.0361 71.8105 31.4806 74.5636 31.4806C77.506 31.4806 79.3472 29.9661 79.3472 27.5498C79.3472 25.6501 78.2975 24.5996 75.7509 23.9955L74.3829 23.6541C72.7655 23.2689 72.1116 22.7524 72.1116 21.8507C72.1116 20.7126 73.1268 19.9685 74.6497 19.9685C76.095 19.9685 77.093 20.6951 77.2737 21.8595H79.1493C79.0374 19.7321 77.1963 18.2351 74.6755 18.2351C71.9654 18.2351 70.1586 19.7321 70.1586 21.982C70.1586 23.838 71.1824 24.941 73.4279 25.475L75.0282 25.869C76.6715 26.2629 77.3942 26.8407 77.3942 27.8037C77.3942 28.9243 76.2585 29.7385 74.7099 29.7385C73.0494 29.7385 71.8965 28.9768 71.7331 27.7775H69.8231Z" fill="white"/>
<path d="M51.3357 21.824C50.1072 21.824 49.0447 22.4491 48.4969 23.4964H48.3641V21.9761H46.6458V34.2318H48.4305V29.7805H48.5716C49.0447 30.7519 50.0657 31.3262 51.3523 31.3262C53.6351 31.3262 55.0877 29.4934 55.0877 26.5709C55.0877 23.6484 53.6351 21.824 51.3357 21.824ZM50.8294 29.6961C49.3353 29.6961 48.3973 28.4967 48.3973 26.5793C48.3973 24.6536 49.3353 23.4542 50.8377 23.4542C52.3484 23.4542 53.2532 24.6282 53.2532 26.5709C53.2532 28.522 52.3484 29.6961 50.8294 29.6961Z" fill="white"/>
<path d="M61.3325 21.824C60.104 21.824 59.0415 22.4491 58.4937 23.4964H58.3609V21.9761H56.6426V34.2318H58.4273V29.7805H58.5684C59.0415 30.7519 60.0625 31.3262 61.3491 31.3262C63.6319 31.3262 65.0845 29.4934 65.0845 26.5709C65.0845 23.6484 63.6319 21.824 61.3325 21.824ZM60.8262 29.6961C59.3321 29.6961 58.3941 28.4967 58.3941 26.5793C58.3941 24.6536 59.3321 23.4542 60.8345 23.4542C62.3452 23.4542 63.25 24.6282 63.25 26.5709C63.25 28.522 62.3452 29.6961 60.8262 29.6961Z" fill="white"/>
<path d="M43.4438 31.1742H45.4914L41.009 18.5415H38.9356L34.4531 31.1742H36.4319L37.5762 27.8212H42.3081L43.4438 31.1742ZM39.8733 20.8352H40.0196L41.8177 26.1754H38.0666L39.8733 20.8352Z" fill="white"/>
<path d="M35.6562 9.01347V15.1076H37.8186C39.6033 15.1076 40.6367 13.9884 40.6367 12.0415C40.6367 10.1242 39.595 9.01347 37.8186 9.01347H35.6562ZM36.5859 9.875H37.7148C38.9558 9.875 39.6904 10.6774 39.6904 12.0542C39.6904 13.4521 38.9683 14.246 37.7148 14.246H36.5859V9.875Z" fill="white"/>
<path d="M43.8018 15.1962C45.1216 15.1962 45.931 14.2967 45.931 12.8059C45.931 11.3236 45.1175 10.4198 43.8018 10.4198C42.482 10.4198 41.6685 11.3236 41.6685 12.8059C41.6685 14.2967 42.4778 15.1962 43.8018 15.1962ZM43.8018 14.3896C43.0257 14.3896 42.5899 13.811 42.5899 12.8059C42.5899 11.8092 43.0257 11.2264 43.8018 11.2264C44.5738 11.2264 45.0137 11.8092 45.0137 12.8059C45.0137 13.8068 44.5738 14.3896 43.8018 14.3896Z" fill="white"/>
<path d="M52.8231 10.5085H51.9308L51.1256 14.018H51.055L50.1253 10.5085H49.2704L48.3407 14.018H48.2743L47.4649 10.5085H46.5602L47.8053 15.1076H48.7225L49.6522 11.7205H49.7228L50.6566 15.1076H51.5821L52.8231 10.5085Z" fill="white"/>
<path d="M53.8507 15.1076H54.7431V12.4174C54.7431 11.6994 55.1623 11.2518 55.8222 11.2518C56.4821 11.2518 56.7975 11.6192 56.7975 12.3582V15.1076H57.6898V12.1302C57.6898 11.0364 57.1337 10.4198 56.1251 10.4198C55.4445 10.4198 54.9962 10.7281 54.7763 11.2391H54.7099V10.5085H53.8507V15.1076Z" fill="white"/>
<path d="M59.0952 15.1076H59.9875V8.71362H59.0952V15.1076Z" fill="white"/>
<path d="M63.3435 15.1962C64.6633 15.1962 65.4727 14.2967 65.4727 12.8059C65.4727 11.3236 64.6592 10.4198 63.3435 10.4198C62.0237 10.4198 61.2102 11.3236 61.2102 12.8059C61.2102 14.2967 62.0195 15.1962 63.3435 15.1962ZM63.3435 14.3896C62.5674 14.3896 62.1316 13.811 62.1316 12.8059C62.1316 11.8092 62.5674 11.2264 63.3435 11.2264C64.1155 11.2264 64.5554 11.8092 64.5554 12.8059C64.5554 13.8068 64.1155 14.3896 63.3435 14.3896Z" fill="white"/>
<path d="M68.1314 14.4192C67.6458 14.4192 67.293 14.1784 67.293 13.7646C67.293 13.3591 67.5752 13.1438 68.1978 13.1015L69.3018 13.0297V13.414C69.3018 13.9842 68.8038 14.4192 68.1314 14.4192ZM67.9031 15.1836C68.4966 15.1836 68.9905 14.9217 69.2603 14.4614H69.3309V15.1076H70.19V11.9655C70.19 10.9942 69.5508 10.4198 68.4178 10.4198C67.3926 10.4198 66.6622 10.9266 66.5709 11.7163H67.4341C67.5337 11.3911 67.8782 11.2053 68.3763 11.2053C68.9864 11.2053 69.3018 11.4798 69.3018 11.9655V12.3625L68.0774 12.4343C67.0025 12.5018 66.3965 12.9791 66.3965 13.8068C66.3965 14.6472 67.0315 15.1836 67.9031 15.1836Z" fill="white"/>
<path d="M73.2181 15.1836C73.8407 15.1836 74.3678 14.8837 74.6376 14.3812H74.7081V15.1076H75.5631V8.71362H74.6708V11.2391H74.6043C74.3595 10.7323 73.8365 10.4325 73.2181 10.4325C72.0768 10.4325 71.3421 11.3531 71.3421 12.8059C71.3421 14.2629 72.0685 15.1836 73.2181 15.1836ZM73.4713 11.2475C74.2184 11.2475 74.6874 11.8515 74.6874 12.8101C74.6874 13.773 74.2225 14.3685 73.4713 14.3685C72.7159 14.3685 72.2635 13.7815 72.2635 12.8059C72.2635 11.8388 72.7201 11.2475 73.4713 11.2475Z" fill="white"/>
<path d="M81.3496 15.1962C82.6694 15.1962 83.4787 14.2967 83.4787 12.8059C83.4787 11.3236 82.6652 10.4198 81.3496 10.4198C80.0297 10.4198 79.2163 11.3236 79.2163 12.8059C79.2163 14.2967 80.0256 15.1962 81.3496 15.1962ZM81.3496 14.3896C80.5734 14.3896 80.1376 13.811 80.1376 12.8059C80.1376 11.8092 80.5734 11.2264 81.3496 11.2264C82.1215 11.2264 82.5615 11.8092 82.5615 12.8059C82.5615 13.8068 82.1215 14.3896 81.3496 14.3896Z" fill="white"/>
<path d="M84.6599 15.1076H85.5523V12.4174C85.5523 11.6994 85.9714 11.2518 86.6314 11.2518C87.2913 11.2518 87.6067 11.6192 87.6067 12.3582V15.1076H88.499V12.1302C88.499 11.0364 87.9429 10.4198 86.9343 10.4198C86.2537 10.4198 85.8054 10.7281 85.5855 11.2391H85.5191V10.5085H84.6599V15.1076Z" fill="white"/>
<path d="M92.6087 9.364V10.5296H91.8907V11.294H92.6087V13.8913C92.6087 14.7781 93.003 15.1329 93.995 15.1329C94.1693 15.1329 94.3353 15.1118 94.4806 15.0864V14.3305C94.3561 14.3432 94.2772 14.3516 94.1402 14.3516C93.6961 14.3516 93.5011 14.1404 93.5011 13.659V11.294H94.4806V10.5296H93.5011V9.364H92.6087Z" fill="white"/>
<path d="M95.6784 15.1076H96.5707V12.4216C96.5707 11.7248 96.9774 11.256 97.7079 11.256C98.3388 11.256 98.675 11.6276 98.675 12.3625V15.1076H99.5673V12.1386C99.5673 11.0448 98.9738 10.424 98.0109 10.424C97.3302 10.424 96.8529 10.7323 96.633 11.2475H96.5624V8.71362H95.6784V15.1076Z" fill="white"/>
<path d="M102.786 11.1926C103.446 11.1926 103.878 11.6614 103.899 12.3836H101.616C101.666 11.6656 102.126 11.1926 102.786 11.1926ZM103.894 13.8659C103.728 14.2249 103.359 14.4234 102.82 14.4234C102.106 14.4234 101.645 13.9124 101.616 13.1058V13.0551H104.808V12.7383C104.808 11.294 104.048 10.4198 102.79 10.4198C101.516 10.4198 100.707 11.3531 100.707 12.8228C100.707 14.2925 101.5 15.1962 102.795 15.1962C103.828 15.1962 104.55 14.6895 104.754 13.8659H103.894Z" fill="white"/>
<path d="M24.7661 20.8057C24.7877 19.0952 25.6905 17.4767 27.1226 16.5808C26.2192 15.2679 24.7059 14.4354 23.1315 14.3853C21.4522 14.206 19.8243 15.4078 18.9686 15.4078C18.0963 15.4078 16.7788 14.4031 15.3601 14.4328C13.5108 14.4936 11.7868 15.5634 10.8871 17.2085C8.95314 20.6157 10.3957 25.6231 12.2483 28.3772C13.1752 29.7258 14.2585 31.2322 15.676 31.1788C17.063 31.1202 17.5811 30.2788 19.2554 30.2788C20.9141 30.2788 21.4002 31.1788 22.8464 31.1448C24.3348 31.1202 25.2725 29.7902 26.1669 28.4289C26.8329 27.4679 27.3453 26.4059 27.6853 25.2821C25.9362 24.5293 24.7681 22.7382 24.7661 20.8057Z" fill="white"/>
<path d="M22.0344 12.5741C22.8459 11.5828 23.2457 10.3086 23.1489 9.02222C21.9091 9.15472 20.7638 9.75768 19.9413 10.7109C19.1371 11.6423 18.7185 12.8941 18.7976 14.1313C20.0379 14.1443 21.2572 13.5577 22.0344 12.5741Z" fill="white"/>
</svg>
