<svg width="68" height="174" viewBox="0 0 68 174" fill="none" xmlns="http://www.w3.org/2000/svg">
<path d="M36.0881 3.45132C18.3693 9.42748 9.0977 12.8182 13.599 31.3361C15.854 40.6131 20.3446 44.1931 28.9836 44.0185C34.7265 43.9024 33.2616 35.2699 27.3684 35.3889C19.6781 35.5444 12.2417 38.7712 7.47516 45.1751C-3.65639 60.1301 9.82214 84.3032 20.643 94.7167C24.9423 98.8542 36.8022 99.7661 31.7862 91.6041C28.2436 85.8396 18.3042 89.577 14.853 93.39C-0.781099 110.663 16.902 130.738 29.3778 142.744C33.5698 146.778 43.1676 154.708 48.6191 156.15C53.0377 157.319 38.7314 167.134 45.764 161.421C49.8336 158.116 55.7189 151.526 56.2577 145.97C56.5175 143.29 60.1488 158.083 61.19 160.308C62.9369 164.041 67.6306 172.652 62.5078 170.066C58.2662 167.925 51.0716 164.843 46.5554 164.934" stroke="#FF78F2" stroke-width="5" stroke-linecap="round"/>
</svg>
