<svg width="135" height="41" viewBox="0 0 135 41" fill="none" xmlns="http://www.w3.org/2000/svg">
<rect x="0.5" y="0.609375" width="134" height="39.7812" rx="4.5" fill="#0F0F0F"/>
<rect x="0.5" y="0.609375" width="134" height="39.7812" rx="4.5" stroke="#A6A6A6"/>
<path d="M68.1409 22.2861C65.7889 22.2861 63.8719 24.1101 63.8719 26.6222C63.8719 29.119 65.7889 30.9582 68.1409 30.9582C70.4939 30.9582 72.4109 29.119 72.4109 26.6222C72.4099 24.1101 70.4929 22.2861 68.1409 22.2861ZM68.1409 29.2515C66.8519 29.2515 65.7409 28.1678 65.7409 26.6232C65.7409 25.0623 66.8529 23.9948 68.1409 23.9948C69.4299 23.9948 70.5409 25.0623 70.5409 26.6232C70.5409 28.1668 69.4299 29.2515 68.1409 29.2515ZM58.8269 22.2861C56.4749 22.2861 54.5579 24.1101 54.5579 26.6222C54.5579 29.119 56.4749 30.9582 58.8269 30.9582C61.1799 30.9582 63.0969 29.119 63.0969 26.6222C63.0969 24.1101 61.1799 22.2861 58.8269 22.2861ZM58.8269 29.2515C57.5379 29.2515 56.4269 28.1678 56.4269 26.6232C56.4269 25.0623 57.5389 23.9948 58.8269 23.9948C60.1159 23.9948 61.2269 25.0623 61.2269 26.6232C61.2279 28.1668 60.1159 29.2515 58.8269 29.2515ZM47.7489 23.6176V25.4569H52.0669C51.9379 26.4917 51.5999 27.2471 51.0839 27.7722C50.4559 28.4125 49.4729 29.119 47.7489 29.119C45.0909 29.119 43.0129 26.9342 43.0129 24.2242C43.0129 21.5143 45.0909 19.3295 47.7489 19.3295C49.1829 19.3295 50.2299 19.9045 51.0029 20.6436L52.2759 19.3458C51.1959 18.2946 49.7629 17.4902 47.7489 17.4902C44.1079 17.4902 41.0469 20.5121 41.0469 24.2242C41.0469 27.9364 44.1079 30.9582 47.7489 30.9582C49.7139 30.9582 51.1969 30.3006 52.3559 29.0691C53.5479 27.8538 53.9189 26.145 53.9189 24.7656C53.9189 24.3394 53.8869 23.9449 53.8219 23.6166H47.7489V23.6176ZM93.0569 25.046C92.7029 24.0774 91.6229 22.2861 89.4159 22.2861C87.2249 22.2861 85.4039 24.0438 85.4039 26.6222C85.4039 29.0527 87.2089 30.9582 89.6249 30.9582C91.5739 30.9582 92.7019 29.743 93.1699 29.0364L91.7199 28.0505C91.2369 28.7734 90.5759 29.2495 89.6249 29.2495C88.6749 29.2495 87.9979 28.806 87.5629 27.9353L93.2499 25.5374L93.0569 25.046ZM87.2569 26.4917C87.2089 24.8156 88.5299 23.9622 89.4809 23.9622C90.2219 23.9622 90.8499 24.3405 91.0599 24.8818L87.2569 26.4917ZM82.6339 30.6962H84.5019V17.9511H82.6339V30.6962ZM79.5719 23.2557H79.5079C79.0889 22.7459 78.2829 22.2861 77.2689 22.2861C75.1419 22.2861 73.1929 24.1916 73.1929 26.6395C73.1929 29.0701 75.1419 30.9593 77.2689 30.9593C78.2839 30.9593 79.0889 30.4995 79.5079 29.9744H79.5719V30.5983C79.5719 32.2571 78.7019 33.1441 77.3009 33.1441C76.1569 33.1441 75.4479 32.3071 75.1579 31.6005L73.5309 32.2908C73.9979 33.4398 75.2379 34.8529 77.3009 34.8529C79.4919 34.8529 81.3449 33.5387 81.3449 30.3353V22.5502H79.5729V23.2557H79.5719ZM77.4299 29.2515C76.1409 29.2515 75.0619 28.1505 75.0619 26.6395C75.0619 25.1112 76.1409 23.9948 77.4299 23.9948C78.7019 23.9948 79.7009 25.1112 79.7009 26.6395C79.7009 28.1505 78.7019 29.2515 77.4299 29.2515ZM101.811 17.9511H97.3399V30.6962H99.2049V25.8677H101.81C103.878 25.8677 105.912 24.3415 105.912 21.9099C105.912 19.4783 103.879 17.9511 101.811 17.9511ZM101.859 24.0937H99.2049V19.725H101.859C103.254 19.725 104.046 20.9026 104.046 21.9099C104.046 22.8968 103.254 24.0937 101.859 24.0937ZM113.391 22.2637C112.04 22.2637 110.641 22.8703 110.062 24.2151L111.718 24.9196C112.072 24.2151 112.732 23.9846 113.423 23.9846C114.388 23.9846 115.369 24.575 115.385 25.6241V25.7556C115.047 25.5588 114.323 25.2642 113.439 25.2642C111.654 25.2642 109.836 26.2643 109.836 28.1331C109.836 29.8388 111.3 30.9368 112.94 30.9368C114.194 30.9368 114.886 30.3628 115.32 29.6899H115.384V30.6738H117.186V25.7872C117.187 23.5259 115.529 22.2637 113.391 22.2637ZM113.165 29.2485C112.555 29.2485 111.702 28.9365 111.702 28.1657C111.702 27.1819 112.764 26.8047 113.681 26.8047C114.5 26.8047 114.887 26.9851 115.385 27.2308C115.24 28.4125 114.243 29.2485 113.165 29.2485ZM123.748 22.542L121.609 28.0679H121.545L119.325 22.542H117.315L120.644 30.265L118.746 34.5613H120.692L125.823 22.542H123.748ZM106.942 30.6962H108.807V17.9511H106.942V30.6962Z" fill="white"/>
<path d="M47.4176 10.5514C47.4176 11.4057 47.1696 12.0857 46.6726 12.5935C46.1086 13.197 45.3726 13.4988 44.4686 13.4988C43.6026 13.4988 42.8656 13.193 42.2606 12.5812C41.6546 11.9685 41.3516 11.21 41.3516 10.3046C41.3516 9.39826 41.6546 8.63973 42.2606 8.02801C42.8656 7.41527 43.6026 7.10941 44.4686 7.10941C44.8986 7.10941 45.3096 7.19505 45.6996 7.36532C46.0906 7.5366 46.4036 7.76395 46.6376 8.0484L46.1106 8.58671C45.7136 8.10244 45.1666 7.86081 44.4676 7.86081C43.8356 7.86081 43.2896 8.08714 42.8286 8.53982C42.3676 8.99249 42.1376 9.58076 42.1376 10.3036C42.1376 11.0265 42.3676 11.6147 42.8286 12.0674C43.2896 12.5201 43.8356 12.7464 44.4676 12.7464C45.1376 12.7464 45.6966 12.519 46.1436 12.0633C46.4336 11.7666 46.6016 11.3537 46.6466 10.8246H44.4676V10.0895H47.3746C47.4046 10.2496 47.4176 10.4035 47.4176 10.5514Z" fill="white"/>
<path d="M52.0277 7.99646H49.2957V9.93561H51.7597V10.6707H49.2957V12.6098H52.0277V13.3623H48.5247V7.24507H52.0277V7.99646Z" fill="white"/>
<path d="M55.2785 13.3623H54.5075V7.99646H52.8315V7.24507H56.9545V7.99646H55.2785V13.3623Z" fill="white"/>
<path d="M59.9375 13.3623V7.24507H60.7085V13.3623H59.9375Z" fill="white"/>
<path d="M64.1277 13.3623H63.3567V7.99646H61.6807V7.24507H65.8037V7.99646H64.1277V13.3623Z" fill="white"/>
<path d="M73.6084 12.5721C73.0184 13.1899 72.2854 13.4989 71.4084 13.4989C70.5314 13.4989 69.7984 13.1899 69.2094 12.5721C68.6194 11.9543 68.3254 11.1978 68.3254 10.3037C68.3254 9.40952 68.6194 8.65303 69.2094 8.0352C69.7984 7.41736 70.5314 7.10742 71.4084 7.10742C72.2804 7.10742 73.0124 7.41838 73.6044 8.03927C74.1964 8.66017 74.4924 9.41462 74.4924 10.3037C74.4924 11.1978 74.1974 11.9543 73.6084 12.5721ZM69.7784 12.0593C70.2224 12.5181 70.7654 12.7464 71.4084 12.7464C72.0514 12.7464 72.5954 12.5171 73.0384 12.0593C73.4824 11.6005 73.7054 11.0153 73.7054 10.3037C73.7054 9.59202 73.4824 9.00681 73.0384 8.54802C72.5954 8.08923 72.0514 7.86086 71.4084 7.86086C70.7654 7.86086 70.2224 8.09025 69.7784 8.54802C69.3354 9.00681 69.1124 9.59202 69.1124 10.3037C69.1124 11.0153 69.3354 11.6005 69.7784 12.0593Z" fill="white"/>
<path d="M75.5745 13.3623V7.24507H76.5125L79.4285 12.0032H79.4615L79.4285 10.8246V7.24507H80.1995V13.3623H79.3945L76.3435 8.37267H76.3105L76.3435 9.55125V13.3623H75.5745Z" fill="white"/>
<path d="M47.4176 10.5514C47.4176 11.4057 47.1696 12.0857 46.6726 12.5935C46.1086 13.197 45.3726 13.4988 44.4686 13.4988C43.6026 13.4988 42.8656 13.193 42.2606 12.5812C41.6546 11.9685 41.3516 11.21 41.3516 10.3046C41.3516 9.39826 41.6546 8.63973 42.2606 8.02801C42.8656 7.41527 43.6026 7.10941 44.4686 7.10941C44.8986 7.10941 45.3096 7.19505 45.6996 7.36532C46.0906 7.5366 46.4036 7.76395 46.6376 8.0484L46.1106 8.58671C45.7136 8.10244 45.1666 7.86081 44.4676 7.86081C43.8356 7.86081 43.2896 8.08714 42.8286 8.53982C42.3676 8.99249 42.1376 9.58076 42.1376 10.3036C42.1376 11.0265 42.3676 11.6147 42.8286 12.0674C43.2896 12.5201 43.8356 12.7464 44.4676 12.7464C45.1376 12.7464 45.6966 12.519 46.1436 12.0633C46.4336 11.7666 46.6016 11.3537 46.6466 10.8246H44.4676V10.0895H47.3746C47.4046 10.2496 47.4176 10.4035 47.4176 10.5514Z" stroke="white" stroke-width="0.2" stroke-miterlimit="10"/>
<path d="M52.0277 7.99646H49.2957V9.93561H51.7597V10.6707H49.2957V12.6098H52.0277V13.3623H48.5247V7.24507H52.0277V7.99646Z" stroke="white" stroke-width="0.2" stroke-miterlimit="10"/>
<path d="M55.2785 13.3623H54.5075V7.99646H52.8315V7.24507H56.9545V7.99646H55.2785V13.3623Z" stroke="white" stroke-width="0.2" stroke-miterlimit="10"/>
<path d="M59.9375 13.3623V7.24507H60.7085V13.3623H59.9375Z" stroke="white" stroke-width="0.2" stroke-miterlimit="10"/>
<path d="M64.1277 13.3623H63.3567V7.99646H61.6807V7.24507H65.8037V7.99646H64.1277V13.3623Z" stroke="white" stroke-width="0.2" stroke-miterlimit="10"/>
<path d="M73.6084 12.5721C73.0184 13.1899 72.2854 13.4989 71.4084 13.4989C70.5314 13.4989 69.7984 13.1899 69.2094 12.5721C68.6194 11.9543 68.3254 11.1978 68.3254 10.3037C68.3254 9.40952 68.6194 8.65303 69.2094 8.0352C69.7984 7.41736 70.5314 7.10742 71.4084 7.10742C72.2804 7.10742 73.0124 7.41838 73.6044 8.03927C74.1964 8.66017 74.4924 9.41462 74.4924 10.3037C74.4924 11.1978 74.1974 11.9543 73.6084 12.5721ZM69.7784 12.0593C70.2224 12.5181 70.7654 12.7464 71.4084 12.7464C72.0514 12.7464 72.5954 12.5171 73.0384 12.0593C73.4824 11.6005 73.7054 11.0153 73.7054 10.3037C73.7054 9.59202 73.4824 9.00681 73.0384 8.54802C72.5954 8.08923 72.0514 7.86086 71.4084 7.86086C70.7654 7.86086 70.2224 8.09025 69.7784 8.54802C69.3354 9.00681 69.1124 9.59202 69.1124 10.3037C69.1124 11.0153 69.3354 11.6005 69.7784 12.0593Z" stroke="white" stroke-width="0.2" stroke-miterlimit="10"/>
<path d="M75.5745 13.3623V7.24507H76.5125L79.4285 12.0032H79.4615L79.4285 10.8246V7.24507H80.1995V13.3623H79.3945L76.3435 8.37267H76.3105L76.3435 9.55125V13.3623H75.5745Z" stroke="white" stroke-width="0.2" stroke-miterlimit="10"/>
<g filter="url(#filter0_ii_1064_1336)">
<path d="M10.4396 7.79513C10.1486 8.10914 9.97656 8.59648 9.97656 9.22757V31.7755C9.97656 32.4076 10.1486 32.8939 10.4396 33.208L10.5136 33.2814L22.9026 20.6504V20.5015V20.3527L10.5136 7.7207L10.4396 7.79513Z" fill="url(#paint0_linear_1064_1336)"/>
<path d="M27.0274 24.8607L22.8984 20.649V20.5001V20.3513L27.0284 16.1406L27.1214 16.1947L32.0144 19.029C33.4114 19.8385 33.4114 21.1628 32.0144 21.9734L27.1214 24.8077L27.0274 24.8607Z" fill="url(#paint1_linear_1064_1336)"/>
<g filter="url(#filter1_i_1064_1336)">
<path d="M27.1235 24.8085L22.8995 20.502L10.4375 33.2084C10.8975 33.7059 11.6585 33.7671 12.5155 33.2716L27.1235 24.8085Z" fill="url(#paint2_linear_1064_1336)"/>
</g>
<path d="M27.1235 16.1954L12.5155 7.73326C11.6585 7.23675 10.8975 7.29894 10.4375 7.79648L22.9005 20.5029L27.1235 16.1954Z" fill="url(#paint3_linear_1064_1336)"/>
</g>
<defs>
<filter id="filter0_ii_1064_1336" x="9.97656" y="7.39062" width="23.0859" height="26.2231" filterUnits="userSpaceOnUse" color-interpolation-filters="sRGB">
<feFlood flood-opacity="0" result="BackgroundImageFix"/>
<feBlend mode="normal" in="SourceGraphic" in2="BackgroundImageFix" result="shape"/>
<feColorMatrix in="SourceAlpha" type="matrix" values="0 0 0 0 0 0 0 0 0 0 0 0 0 0 0 0 0 0 127 0" result="hardAlpha"/>
<feOffset dy="-0.15"/>
<feComposite in2="hardAlpha" operator="arithmetic" k2="-1" k3="1"/>
<feColorMatrix type="matrix" values="0 0 0 0 0 0 0 0 0 0 0 0 0 0 0 0 0 0 0.12 0"/>
<feBlend mode="normal" in2="shape" result="effect1_innerShadow_1064_1336"/>
<feColorMatrix in="SourceAlpha" type="matrix" values="0 0 0 0 0 0 0 0 0 0 0 0 0 0 0 0 0 0 127 0" result="hardAlpha"/>
<feOffset dy="0.15"/>
<feComposite in2="hardAlpha" operator="arithmetic" k2="-1" k3="1"/>
<feColorMatrix type="matrix" values="0 0 0 0 1 0 0 0 0 1 0 0 0 0 1 0 0 0 0.25 0"/>
<feBlend mode="normal" in2="effect1_innerShadow_1064_1336" result="effect2_innerShadow_1064_1336"/>
</filter>
<filter id="filter1_i_1064_1336" x="10.4375" y="20.502" width="16.6855" height="13.1118" filterUnits="userSpaceOnUse" color-interpolation-filters="sRGB">
<feFlood flood-opacity="0" result="BackgroundImageFix"/>
<feBlend mode="normal" in="SourceGraphic" in2="BackgroundImageFix" result="shape"/>
<feColorMatrix in="SourceAlpha" type="matrix" values="0 0 0 0 0 0 0 0 0 0 0 0 0 0 0 0 0 0 127 0" result="hardAlpha"/>
<feOffset dy="-0.15"/>
<feComposite in2="hardAlpha" operator="arithmetic" k2="-1" k3="1"/>
<feColorMatrix type="matrix" values="0 0 0 0 0 0 0 0 0 0 0 0 0 0 0 0 0 0 0.08 0"/>
<feBlend mode="normal" in2="shape" result="effect1_innerShadow_1064_1336"/>
</filter>
<linearGradient id="paint0_linear_1064_1336" x1="21.8044" y1="8.989" x2="4.69779" y2="25.7679" gradientUnits="userSpaceOnUse">
<stop stop-color="#00A0FF"/>
<stop offset="0.0066" stop-color="#00A1FF"/>
<stop offset="0.2601" stop-color="#00BEFF"/>
<stop offset="0.5122" stop-color="#00D2FF"/>
<stop offset="0.7604" stop-color="#00DFFF"/>
<stop offset="1" stop-color="#00E3FF"/>
</linearGradient>
<linearGradient id="paint1_linear_1064_1336" x1="33.8329" y1="20.5001" x2="9.63704" y2="20.5001" gradientUnits="userSpaceOnUse">
<stop stop-color="#FFE000"/>
<stop offset="0.4087" stop-color="#FFBD00"/>
<stop offset="0.7754" stop-color="#FFA500"/>
<stop offset="1" stop-color="#FF9C00"/>
</linearGradient>
<linearGradient id="paint2_linear_1064_1336" x1="24.8296" y1="22.8407" x2="1.63095" y2="45.5949" gradientUnits="userSpaceOnUse">
<stop stop-color="#FF3A44"/>
<stop offset="1" stop-color="#C31162"/>
</linearGradient>
<linearGradient id="paint3_linear_1064_1336" x1="7.2989" y1="0.290482" x2="17.6577" y2="10.4509" gradientUnits="userSpaceOnUse">
<stop stop-color="#32A071"/>
<stop offset="0.0685" stop-color="#2DA771"/>
<stop offset="0.4762" stop-color="#15CF74"/>
<stop offset="0.8009" stop-color="#06E775"/>
<stop offset="1" stop-color="#00F076"/>
</linearGradient>
</defs>
</svg>
