<svg width="88" height="85" viewBox="0 0 88 85" fill="none" xmlns="http://www.w3.org/2000/svg">
<path d="M41.5362 0.0953028C24.8958 4.87697 10.862 14.2174 0.331281 29.6581C0.286671 29.7234 0.27182 29.8051 0.291045 29.8829C2.47851 38.7586 5.85346 45.8514 9.86059 52.0292C9.892 52.0771 9.93761 52.1139 9.99102 52.1345C10.0444 52.1551 10.103 52.1584 10.1585 52.1441C12.8573 51.4436 15.5208 50.5536 18.1203 49.4546C18.272 49.3886 18.3338 49.2085 18.2537 49.066C17.0192 46.8847 15.9857 44.642 15.1425 42.3039C15.0762 42.1195 15.2233 41.9262 15.4177 41.9366C15.9842 41.9679 16.5584 41.9831 17.1177 41.986C17.2218 41.9871 17.3136 42.0467 17.3556 42.1392C23.9267 56.0031 35.644 65.7674 50.592 69.8361C50.6885 69.8632 50.763 69.9435 50.7819 70.0435C50.8848 70.5925 51.0062 71.1527 51.1358 71.7015C51.1811 71.8909 51.0158 72.069 50.8217 72.0364C48.385 71.6104 45.9776 71.0165 43.6091 70.201C43.4553 70.1486 43.2888 70.2358 43.252 70.3976C42.6162 73.1373 42.2212 75.9176 42.042 78.7177C42.0387 78.8343 42.1027 78.9424 42.2108 78.9875C48.9843 81.7936 56.5694 83.8341 65.6942 84.3851C65.7717 84.3879 65.8539 84.3582 65.9092 84.3018C77.3633 72.9001 85.4454 58.426 87.5658 38.4489C87.5734 38.3977 87.5641 38.345 87.5409 38.2989C84.9393 32.8432 81.6094 27.6495 77.5652 22.8979C77.4903 22.813 77.3712 22.7812 77.263 22.8202C75.8164 23.3695 74.0425 24.1416 72.6867 24.8508C68.3428 19.9394 63.2861 15.7255 57.5677 12.2517C58.0014 10.8134 58.4835 8.92548 58.7654 7.40557C58.7762 7.35051 58.7693 7.29348 58.7458 7.24262C58.7223 7.19176 58.6833 7.14966 58.6344 7.12235C53.2268 4.00169 47.5178 1.66303 41.6878 0.0882415C41.6374 0.0729832 41.5848 0.0740044 41.5362 0.0953028ZM49.9767 46.956C52.9701 43.2581 58.1487 42.4495 61.4859 45.2306C64.7959 47.9889 64.931 53.1805 61.8635 56.8615C58.7967 60.5417 53.6137 61.3017 50.3558 58.5868C47.045 55.8278 46.9099 50.6362 49.9767 46.956ZM28.0021 28.6439C30.9954 24.946 36.174 24.1374 39.5105 26.9178C42.8213 29.6768 42.9563 34.8684 39.8888 38.5495C36.822 42.2297 31.6391 42.9897 28.3803 40.2741C25.0439 37.4937 24.9353 32.3241 28.0021 28.6439Z" fill="white"/>
</svg>
