<svg width="92" height="89" viewBox="0 0 92 89" fill="none" xmlns="http://www.w3.org/2000/svg">
<path d="M48.3352 0.0193181C65.732 5.01833 80.4036 14.7833 91.413 30.9259C91.4597 30.9941 91.4752 31.0795 91.4551 31.1608C89.1682 40.4401 85.6398 47.8552 81.4506 54.3138C81.4177 54.3639 81.3701 54.4024 81.3142 54.4239C81.2584 54.4454 81.1972 54.4489 81.1391 54.4339C78.3176 53.7016 75.5331 52.7712 72.8154 51.6222C72.6569 51.5532 72.5922 51.365 72.676 51.2159C73.9666 48.9355 75.047 46.5909 75.9286 44.1465C75.9979 43.9537 75.8441 43.7516 75.6409 43.7625C75.0486 43.7952 74.4483 43.8111 73.8636 43.8141C73.7547 43.8153 73.6588 43.8776 73.6149 43.9743C66.7451 58.4684 54.4952 68.6765 38.8677 72.9301C38.7668 72.9584 38.6889 73.0424 38.6692 73.147C38.5617 73.7209 38.4347 74.3066 38.2992 74.8803C38.2519 75.0783 38.4246 75.2646 38.6276 75.2305C41.1751 74.7851 43.6919 74.1642 46.168 73.3116C46.3288 73.2569 46.5029 73.348 46.5413 73.5171C47.206 76.3814 47.6191 79.288 47.8063 82.2155C47.8098 82.3374 47.7429 82.4504 47.6299 82.4976C40.5485 85.4311 32.6186 87.5644 23.0791 88.1405C22.9981 88.1434 22.9121 88.1123 22.8543 88.0534C10.8796 76.1334 2.43005 61.0014 0.213302 40.1162C0.205314 40.0627 0.215058 40.0076 0.239371 39.9595C2.95919 34.2557 6.4404 28.826 10.6685 23.8584C10.7468 23.7697 10.8713 23.7363 10.9844 23.7771C12.4968 24.3514 14.3513 25.1586 15.7687 25.9001C20.3101 20.7654 25.5967 16.3599 31.575 12.7283C31.1215 11.2246 30.6175 9.25087 30.3229 7.66187C30.3116 7.60431 30.3187 7.54468 30.3433 7.49151C30.3679 7.43833 30.4087 7.39433 30.4598 7.36577C36.1131 4.10326 42.0816 1.65831 48.1767 0.0119321C48.2293 -0.00401735 48.2844 -0.00294852 48.3352 0.0193181ZM39.511 49.01C36.3816 45.144 30.9676 44.2987 27.4786 47.2062C24.0182 50.0899 23.877 55.5175 27.0839 59.3658C30.2901 63.2133 35.7087 64.0079 39.1147 61.1695C42.576 58.2851 42.7172 52.8575 39.511 49.01ZM62.4844 29.8656C59.3551 25.9996 53.9411 25.1543 50.453 28.061C46.9916 30.9454 46.8505 36.373 50.0574 40.2214C53.2636 44.0689 58.6821 44.8634 62.089 42.0244C65.5771 39.1176 65.6907 33.7131 62.4844 29.8656Z" fill="white"/>
</svg>
