<svg width="48" height="48" viewBox="0 0 48 48" fill="none" xmlns="http://www.w3.org/2000/svg">
<path d="M44.5715 11.6356C46.5387 15.3639 48 19.4773 48 24C48 37.2548 37.2548 48 24 48C10.7452 48 0 37.2548 0 24C0 10.7452 10.7452 0 24 0C28.6048 0 33.0935 1.40916 36.7472 3.65756C36.7472 3.65756 42.4125 7.54369 44.5715 11.6356Z" fill="#FF405C"/>
<path d="M48 24C48 19.4773 46.5387 15.3639 44.5716 11.6356C42.4125 7.54369 36.7472 3.65756 36.7472 3.65756C33.0935 1.40916 28.6048 0 24 0V48C37.2548 48 48 37.2548 48 24Z" fill="#C1126B"/>
<path d="M37.9359 17.0834C38.9598 19.2671 39.5537 21.4216 39.5537 24.0001C39.5537 32.5904 32.5899 39.5543 23.9995 39.5543C15.4091 39.5543 8.44531 32.5904 8.44531 24.0001C8.44531 15.4097 15.4093 8.4458 23.9996 8.4458C26.713 8.4458 29.0497 9.02415 31.2703 10.2455C31.2703 10.2456 35.9953 12.9449 37.9359 17.0834Z" fill="#FFF4F4"/>
<path d="M39.5542 24.0001C39.5542 21.4216 38.9603 19.2671 37.9364 17.0834C35.9959 12.945 31.2709 10.2456 31.2709 10.2456C29.0501 9.02424 26.7134 8.4458 24 8.4458V39.5542C32.5903 39.5543 39.5542 32.5904 39.5542 24.0001Z" fill="#EEE1DC"/>
<path d="M24.0004 31.3216C28.0441 31.3216 31.3221 28.0436 31.3221 23.9999C31.3221 19.9563 28.0441 16.6782 24.0004 16.6782C19.9567 16.6782 16.6787 19.9563 16.6787 23.9999C16.6787 28.0436 19.9567 31.3216 24.0004 31.3216Z" fill="#FF405C"/>
<path d="M31.3217 23.9999C31.3217 19.9563 28.0436 16.6782 24 16.6782V31.3216C28.0436 31.3216 31.3217 28.0435 31.3217 23.9999Z" fill="#C1126B"/>
<path d="M23.7041 25.9482C23.3237 25.9482 22.9437 25.8026 22.6545 25.5115C22.0786 24.9318 22.0817 23.9951 22.6613 23.4192L40.9201 5.2804C41.4998 4.70459 42.4366 4.70778 43.0124 5.28725C43.5882 5.8669 43.5851 6.80375 43.0055 7.37956L24.7468 25.5183C24.4581 25.805 24.0811 25.9482 23.7041 25.9482Z" fill="#00337A"/>
<path d="M42.972 4.55497L41.6241 0.662661C41.4011 0.0188798 40.5814 -0.169558 40.0997 0.31213L32.449 7.96288C32.227 8.18488 32.1331 8.50447 32.1998 8.81122L33.3231 13.9815C33.3964 14.319 33.6521 14.5873 33.9856 14.6768L39.298 16.1023C39.6164 16.1878 39.9564 16.0968 40.1896 15.8637L47.7293 8.32401C48.1894 7.86388 48.0416 7.08491 47.4448 6.82541L43.4759 5.09919C43.2392 4.99625 43.0564 4.79891 42.972 4.55497Z" fill="#00AEEE"/>
<path d="M43.0124 5.28725C43.0011 5.2759 42.9889 5.26625 42.9773 5.25537L22.6895 25.5433C22.9741 25.8122 23.3386 25.9482 23.704 25.9482C24.081 25.9482 24.4581 25.805 24.7467 25.5184L43.0055 7.37965C43.5852 6.80375 43.5883 5.867 43.0124 5.28725Z" fill="#002659"/>
<path d="M47.4418 6.82812L43.4729 5.1019C43.3957 5.06834 43.3249 5.02371 43.2607 4.97168L33.6914 14.5408C33.7787 14.6024 33.8761 14.6509 33.9827 14.6795L39.295 16.1051C39.6135 16.1906 39.9534 16.0995 40.1867 15.8664L47.7263 8.32671C48.1864 7.86659 48.0385 7.08762 47.4418 6.82812Z" fill="#0089FF"/>
</svg>
