<svg width="99" height="32" viewBox="0 0 99 32" fill="none" xmlns="http://www.w3.org/2000/svg">
<g clip-path="url(#clip0_383_27749)">
<path d="M16 32C24.8366 32 32 24.8366 32 16C32 7.16344 24.8366 0 16 0C7.16344 0 0 7.16344 0 16C0 24.8366 7.16344 32 16 32Z" fill="#FECB32"/>
<path fill-rule="evenodd" clip-rule="evenodd" d="M4.33035 10.6214L4.02832 11.7889L10.0417 9.1792L4.33035 10.6214Z" fill="#FF7200"/>
<path d="M4.31445 13.9004V14.6565H6.27937V12.1133L4.31445 13.9004Z" fill="#D43264"/>
<path d="M4.31445 13.9035V14.6569H5.92164V12.5767L4.31445 13.9035Z" fill="#FF7200"/>
<path d="M19.3655 8.7926C19.481 8.76109 19.7016 8.72955 20.0273 8.72955C20.8256 8.72955 21.2773 9.11838 21.2773 9.76994C21.2773 10.4951 20.7521 10.926 19.9012 10.926C19.6701 10.926 19.502 10.9155 19.3655 10.8839V8.7926ZM17.7793 14.6567H19.3655V12.124C19.5125 12.1451 19.7016 12.1556 19.9117 12.1556C20.8571 12.1556 21.666 11.9244 22.2122 11.4094C22.6324 11.01 22.8635 10.4215 22.8635 9.72792C22.8635 9.03433 22.5588 8.44581 22.1071 8.08851C21.6344 7.71017 20.9306 7.521 19.9432 7.521C18.9663 7.521 18.273 7.58406 17.7793 7.66813V14.6567Z" fill="#005EC2"/>
<path d="M27.4428 10.3582H24.8377V8.88691H27.6003V7.57324H23.2305V14.6564H27.7474V13.3428H24.8377V11.6613H27.4428V10.3582Z" fill="#005EC2"/>
<path d="M4.31445 7.57373V11.4945L5.29567 11.0969L10.0467 9.17121C9.55059 9.58081 9.05442 9.99042 8.55827 10.4V14.6569H10.155V7.57373H8.55827C8.55827 8.04576 8.55827 8.5178 8.55827 8.98985C8.55827 9.24318 8.4332 9.58081 7.86307 9.68882L5.92166 10.0567V7.57373H4.31445Z" fill="#005EC2"/>
<path fill-rule="evenodd" clip-rule="evenodd" d="M13.933 7.64697C15.9525 7.64697 17.5896 9.28482 17.5896 11.3052C17.5896 13.3256 15.9525 14.9634 13.933 14.9634C11.9135 14.9634 10.2764 13.3256 10.2764 11.3052C10.2764 9.28482 11.9135 7.64697 13.933 7.64697ZM13.933 9.42812C14.9692 9.42812 15.8092 10.2685 15.8092 11.3052C15.8092 12.3419 14.9692 13.1823 13.933 13.1823C12.8968 13.1823 12.0567 12.3419 12.0567 11.3052C12.0567 10.2685 12.8968 9.42812 13.933 9.42812Z" fill="#005EC2"/>
<path d="M4.52441 16.6917V15.8078H4.86207C4.9214 15.8078 4.96677 15.8107 4.99823 15.8162C5.04216 15.8234 5.079 15.8372 5.10878 15.8574C5.13855 15.8777 5.16249 15.9061 5.18061 15.9425C5.19872 15.979 5.20767 16.0191 5.20767 16.0629C5.20767 16.1378 5.18351 16.2014 5.13502 16.2532C5.08672 16.3053 4.99908 16.3312 4.87252 16.3312H4.64311V16.6917H4.52445H4.52441ZM4.64307 16.2275H4.87416C4.95078 16.2275 5.00489 16.2135 5.03715 16.1853C5.0692 16.1571 5.08524 16.1176 5.08524 16.0664C5.08524 16.0296 5.07587 15.9979 5.05692 15.9715C5.038 15.9452 5.01299 15.9277 4.98219 15.9193C4.96219 15.9142 4.92536 15.9115 4.87185 15.9115H4.64306L4.64307 16.2275ZM6.008 16.6917L6.35108 15.8078H6.4812L6.8453 16.6917H6.7106L6.60715 16.4238H6.23055L6.13355 16.6917H6.008ZM6.2653 16.3287H6.57008L6.47683 16.0837C6.44872 16.0092 6.42749 15.9477 6.4127 15.8991C6.40042 15.9567 6.38398 16.0133 6.36336 16.0693L6.2653 16.3287ZM7.93981 16.6917V16.3172L7.59505 15.8078H7.73745L7.91419 16.0752C7.94709 16.1248 7.97768 16.1744 8.00559 16.224C8.03287 16.1777 8.06596 16.1259 8.10448 16.0683L8.27768 15.8078H8.4157L8.05847 16.3172V16.6917H7.93981ZM9.3595 16.6917V15.8078H9.53688L9.74838 16.4335C9.76796 16.4917 9.78211 16.5353 9.79106 16.5643C9.80126 16.5322 9.81728 16.4849 9.83894 16.4226L10.0542 15.8078H10.2126V16.6917H10.099V15.9522L9.8379 16.6917H9.73131L9.47318 15.9386V16.6917L9.3595 16.6917ZM11.2461 16.6917V15.8078H11.8919V15.9115H11.3648V16.1831H11.8582V16.2867H11.3648V16.588H11.9131V16.6917H11.2461ZM12.9167 16.6917V15.8078H13.0383L13.5075 16.5015V15.8078H13.6212V16.6917H13.4996L13.0304 15.9979V16.6917H12.9167ZM14.8885 16.6917V15.9115H14.5937V15.8078H15.3019V15.9115H15.0071V16.6917H14.8885ZM16.8982 16.4077L17.0093 16.3979C17.0145 16.4423 17.0268 16.4787 17.0462 16.5073C17.0655 16.5357 17.0955 16.5588 17.1361 16.5765C17.1767 16.5939 17.2225 16.6028 17.2733 16.6028C17.3185 16.6028 17.3582 16.5962 17.3928 16.5828C17.4273 16.5695 17.4529 16.5512 17.4698 16.5279C17.4867 16.5047 17.4952 16.4794 17.4952 16.4522C17.4952 16.4246 17.4871 16.4006 17.4709 16.3798C17.4546 16.3592 17.4278 16.3419 17.3903 16.3277C17.3664 16.3187 17.3133 16.3042 17.231 16.2847C17.1488 16.2652 17.0914 16.2468 17.0585 16.2296C17.0158 16.2074 16.9841 16.1798 16.9633 16.1471C16.9423 16.1144 16.9319 16.0775 16.9319 16.037C16.9319 15.9921 16.9448 15.9504 16.9704 15.9117C16.996 15.8728 17.0332 15.8434 17.0826 15.8232C17.1317 15.8031 17.1865 15.793 17.2466 15.793C17.3128 15.793 17.3713 15.8035 17.4219 15.8247C17.4725 15.8457 17.5114 15.8767 17.5387 15.9179C17.566 15.9588 17.5806 16.0053 17.5826 16.0572L17.469 16.0658C17.4629 16.0101 17.4423 15.9679 17.4071 15.9395C17.372 15.9109 17.3199 15.8967 17.2512 15.8967C17.1796 15.8967 17.1274 15.9097 17.0947 15.9356C17.062 15.9615 17.0455 15.9928 17.0455 16.0294C17.0455 16.0611 17.0572 16.0872 17.0803 16.1078C17.1032 16.1282 17.1625 16.1493 17.2587 16.1707C17.3549 16.1924 17.4209 16.2111 17.4567 16.2271C17.5086 16.2508 17.5471 16.2806 17.5718 16.317C17.5966 16.3532 17.6089 16.395 17.6089 16.4423C17.6089 16.4894 17.5954 16.5335 17.5681 16.575C17.5408 16.6166 17.5019 16.6489 17.4509 16.6719C17.3999 16.695 17.3426 16.7065 17.2787 16.7065C17.1979 16.7065 17.1303 16.6948 17.0757 16.6715C17.021 16.6483 16.9783 16.6133 16.9473 16.5664C16.9161 16.5197 16.8998 16.4668 16.8982 16.4078V16.4077ZM18.6137 16.6917V15.8078H19.2594V15.9115H18.7323V16.1831H19.2257V16.2867H18.7323V16.588H19.2807V16.6917H18.6137ZM20.288 16.6917V15.8078H20.6844C20.7641 15.8078 20.8247 15.8158 20.8661 15.8316C20.9075 15.8475 20.9406 15.8755 20.9654 15.9156C20.9902 15.9557 21.0025 16.0001 21.0025 16.0487C21.0025 16.1114 20.9818 16.1643 20.9408 16.2073C20.8998 16.2503 20.8366 16.2775 20.7508 16.2892C20.7822 16.304 20.8059 16.3188 20.8222 16.3333C20.8567 16.3645 20.8894 16.4038 20.92 16.4509L21.0747 16.6917H20.9269L20.8086 16.5077C20.7743 16.4544 20.7458 16.4139 20.7235 16.3857C20.701 16.3575 20.681 16.338 20.6634 16.3267C20.6459 16.3155 20.6278 16.3077 20.6094 16.3032C20.5961 16.3005 20.5742 16.2991 20.5436 16.2991H20.4067V16.6917L20.288 16.6917ZM20.4066 16.1979H20.6606C20.7148 16.1979 20.7568 16.1923 20.7872 16.1812C20.8176 16.1703 20.8407 16.1526 20.8563 16.1281C20.8721 16.1039 20.8801 16.0775 20.8801 16.0489C20.8801 16.0071 20.8649 15.9726 20.8343 15.9456C20.8037 15.9187 20.7554 15.9053 20.6894 15.9053H20.4067L20.4066 16.1979ZM22.261 16.6917L21.9154 15.8078H22.0437L22.276 16.4501C22.2945 16.5016 22.3104 16.5497 22.3228 16.5948C22.3366 16.5464 22.3526 16.4983 22.3709 16.4501L22.612 15.8078H22.7327L22.384 16.6917H22.261ZM23.7005 16.6917V15.8078H23.893V16.6917H23.7005ZM25.5057 16.3816L25.6244 16.4112C25.5996 16.5073 25.555 16.5804 25.4907 16.6308C25.4264 16.6812 25.3477 16.7065 25.2547 16.7065C25.1585 16.7065 25.0802 16.6872 25.0198 16.6483C24.9594 16.6096 24.9136 16.5534 24.8822 16.48C24.8508 16.4063 24.835 16.3275 24.835 16.2432C24.835 16.1512 24.8526 16.071 24.8883 16.0024C24.9239 15.9339 24.9744 15.8819 25.04 15.8463C25.1056 15.8107 25.1778 15.793 25.2565 15.793C25.346 15.793 25.4212 15.8154 25.482 15.8605C25.543 15.9055 25.5854 15.9687 25.6094 16.0502L25.4932 16.0773C25.4726 16.0131 25.4424 15.9662 25.4031 15.937C25.3637 15.9076 25.3142 15.893 25.2544 15.893C25.1859 15.893 25.1285 15.9092 25.0825 15.9417C25.0365 15.9742 25.004 16.0181 24.9855 16.0728C24.9667 16.1277 24.9573 16.1843 24.9573 16.2425C24.9573 16.3176 24.9684 16.3832 24.9904 16.4392C25.0125 16.4954 25.0469 16.5371 25.0935 16.5649C25.1401 16.5927 25.1905 16.6065 25.2448 16.6065C25.311 16.6065 25.3668 16.5876 25.4126 16.5499C25.4584 16.512 25.4895 16.4561 25.5057 16.3816L25.5057 16.3816ZM26.6144 16.6917V15.8078H27.2602V15.9115H26.733V16.1831H27.2264V16.2867H26.733V16.588H27.2814V16.6917H26.6144Z" fill="#4B4B4D"/>
<path d="M4.11133 24.4784H6.75401C8.21062 24.4784 9.41749 23.8731 9.41749 22.4748C9.41749 21.5773 8.93891 21.0764 7.98172 20.8886V20.8469C8.77245 20.6382 9.10538 19.9703 9.10538 19.3859C9.10538 18.0501 7.96092 17.6953 6.54593 17.6953H4.11133V24.4784ZM5.90087 20.3668V19.0728H6.50431C7.08696 19.0728 7.35747 19.2398 7.35747 19.6572C7.35747 20.0747 7.08696 20.3668 6.50431 20.3668H5.90087ZM5.90087 23.1009V21.6191H6.62918C7.33666 21.6191 7.66957 21.8278 7.66957 22.3287C7.66957 22.8296 7.33664 23.1009 6.62918 23.1009H5.90087ZM11.7314 21.6504L11.8458 21.1808C12.004 20.5317 12.1787 19.7198 12.3244 19.0311H12.366C12.5325 19.7094 12.7073 20.5318 12.8654 21.1808L12.9799 21.6504H11.7314ZM13.6353 24.4784H15.5289L13.4688 17.6953H11.3048L9.24471 24.4784H11.0759L11.4088 23.0383H13.3023L13.6353 24.4784H13.6353ZM15.9826 24.4784H17.6889V22.5165C17.6889 21.6817 17.5432 20.7008 17.46 19.9285H17.5016L18.1467 21.4417L19.6449 24.4784H21.476V17.6953H19.7697V19.6572C19.7697 20.4916 19.9154 21.5147 19.9986 22.2452H19.957L19.312 20.7216L17.8137 17.6953H15.9826V24.4784ZM22.0552 24.4784H23.8448V22.7879L24.4899 21.8695L25.9881 24.4784H27.9441L25.5303 20.4503L27.5487 17.6953H25.5927L23.8864 20.2207H23.8448V17.6953H22.0552V24.4784Z" fill="#005EC2"/>
</g>
<path d="M37 18.994V10.834H38.704V14.218H42.124V10.834H43.828V18.994H42.124V15.706H38.704V18.994H37Z" fill="#231F20"/>
<path d="M45.2494 15.994C45.2494 14.314 46.6414 12.91 48.3574 12.91C50.0374 12.91 51.4414 14.314 51.4414 15.994C51.4414 17.722 50.0374 19.114 48.3574 19.114C46.6414 19.114 45.2494 17.722 45.2494 15.994ZM46.8934 15.994C46.8934 16.798 47.3734 17.686 48.3694 17.686C49.3414 17.686 49.7854 16.798 49.7854 15.994C49.7854 15.214 49.3414 14.338 48.3694 14.338C47.3734 14.338 46.8934 15.214 46.8934 15.994Z" fill="#231F20"/>
<path d="M52.7889 21.166V13.018H54.3849V13.642C54.7569 13.222 55.3089 12.91 56.0769 12.91C57.7329 12.91 58.8249 14.314 58.8249 15.994C58.8249 17.71 57.7329 19.102 56.0769 19.102C55.3089 19.102 54.7569 18.814 54.3849 18.382V21.166H52.7889ZM54.3849 15.262V16.738C54.6369 17.182 55.2489 17.614 55.8369 17.614C56.7729 17.614 57.1809 16.786 57.1809 15.994C57.1809 15.19 56.7729 14.398 55.8369 14.398C55.2489 14.398 54.6369 14.842 54.3849 15.262Z" fill="#231F20"/>
<path d="M59.8562 15.994C59.8562 14.314 61.2602 12.91 62.8922 12.91C64.6562 12.91 65.8322 14.062 65.9642 16.018C65.9762 16.198 65.9762 16.498 65.9762 16.678H61.6082C61.7642 17.242 62.3282 17.734 63.0362 17.734C63.6602 17.734 64.2002 17.374 64.4522 16.954L65.7122 17.578C65.1722 18.49 64.2842 19.102 63.0242 19.102C60.9962 19.102 59.8562 17.71 59.8562 15.994ZM61.5842 15.502H64.2602C64.2002 14.878 63.7202 14.29 62.9642 14.29C62.1842 14.29 61.7162 14.842 61.5842 15.502Z" fill="#231F20"/>
<path d="M70.757 18.994V10.834H74.189C75.881 10.834 76.925 11.602 76.925 12.898C76.925 13.762 76.481 14.398 75.665 14.746C76.733 15.034 77.321 15.754 77.321 16.81C77.321 18.202 76.289 18.994 74.549 18.994H70.757ZM74.357 15.502H72.461V17.506H74.357C75.257 17.506 75.557 17.014 75.557 16.486C75.557 15.982 75.257 15.502 74.357 15.502ZM72.461 14.23H73.961C74.813 14.23 75.161 13.762 75.161 13.27C75.161 12.778 74.825 12.322 73.973 12.322H72.461V14.23Z" fill="#231F20"/>
<path d="M80.4608 19.102C79.3568 19.102 78.3968 18.538 78.3968 17.29C78.3968 16.018 79.4408 15.43 80.7728 15.43L82.1168 15.418V15.226C82.1168 14.506 81.5648 14.23 80.9648 14.23C80.3528 14.23 79.7648 14.626 79.4288 14.926L78.6968 13.894C79.4168 13.138 80.2688 12.91 81.2768 12.91C82.6088 12.91 83.7128 13.714 83.7128 14.974V18.994H82.1168V18.514C81.6968 18.886 81.1928 19.102 80.4608 19.102ZM80.9648 16.522C80.4728 16.522 80.0528 16.654 80.0528 17.17C80.0528 17.662 80.4608 17.854 80.9288 17.854C81.5048 17.854 81.8408 17.59 82.1168 17.206V16.522H80.9648Z" fill="#231F20"/>
<path d="M85.4092 18.994V13.018H87.0052V13.69C87.4492 13.222 88.0492 12.91 88.8772 12.91C90.0052 12.91 90.8572 13.774 90.8572 14.878V18.994H89.2132V15.514C89.2132 14.602 88.7212 14.422 88.2892 14.422C87.8092 14.422 87.3772 14.674 87.0052 15.142V18.994H85.4092Z" fill="#231F20"/>
<path d="M92.5664 10.834H94.1504V15.334L96.1064 13.018H97.9784L95.6504 15.718L98.2424 18.994H96.4064L94.6904 16.834L94.1504 17.482V18.994H92.5664V10.834Z" fill="#231F20"/>
<defs>
<clipPath id="clip0_383_27749">
<rect width="32" height="32" fill="white"/>
</clipPath>
</defs>
</svg>
