<svg width="129" height="31" viewBox="0 0 129 31" fill="none" xmlns="http://www.w3.org/2000/svg">
<path d="M31.7642 26.9653H18.2427V3.22754H31.7644L31.7642 26.9653Z" fill="#FF5F00"/>
<path d="M19.1 15.0967C19.1 10.2815 21.408 5.9921 25.002 3.22782C22.2815 1.13232 18.9167 -0.00498413 15.4523 1.64198e-05C6.918 1.64198e-05 0 6.75894 0 15.0967C0 23.4345 6.918 30.1934 15.4523 30.1934C18.9168 30.1985 22.2817 29.0612 25.0023 26.9656C21.4085 24.2018 19.1 19.9122 19.1 15.0967Z" fill="#EB001B"/>
<path d="M50.0064 15.0967C50.0064 23.4345 43.0884 30.1934 34.5542 30.1934C31.0893 30.1984 27.724 29.0611 25.0029 26.9656C28.5979 24.2013 30.9059 19.9122 30.9059 15.0967C30.9059 10.2813 28.5979 5.9921 25.0029 3.22782C27.7239 1.13238 31.0891 -0.00489648 34.5539 1.58471e-05C43.0882 1.58471e-05 50.0062 6.75894 50.0062 15.0967" fill="#F79E1B"/>
<path d="M127.254 18.7963V18.9469H127.399C127.426 18.9473 127.453 18.9407 127.477 18.9277C127.486 18.9212 127.494 18.9125 127.499 18.9025C127.504 18.8924 127.506 18.8813 127.506 18.8701C127.506 18.8591 127.504 18.8482 127.499 18.8383C127.494 18.8285 127.486 18.8201 127.477 18.814C127.453 18.8003 127.426 18.7937 127.399 18.7948H127.254V18.7963ZM127.401 18.6897C127.463 18.686 127.524 18.7033 127.575 18.7387C127.595 18.7547 127.611 18.7751 127.622 18.7983C127.632 18.8214 127.637 18.8467 127.636 18.872C127.637 18.8937 127.633 18.9154 127.624 18.9356C127.616 18.9558 127.603 18.974 127.587 18.989C127.548 19.0218 127.499 19.0415 127.448 19.0451L127.642 19.2597H127.492L127.313 19.0466H127.255V19.2597H127.13V18.6901H127.402L127.401 18.6897ZM127.362 19.4562C127.427 19.4568 127.492 19.444 127.553 19.4186C127.611 19.3944 127.663 19.3598 127.708 19.3166C127.753 19.2734 127.789 19.2223 127.814 19.166C127.865 19.0467 127.865 18.9126 127.814 18.7933C127.788 18.7372 127.753 18.6861 127.708 18.6427C127.663 18.5995 127.611 18.5649 127.553 18.5407C127.492 18.5166 127.427 18.5046 127.362 18.5053C127.295 18.5047 127.229 18.5167 127.167 18.5407C127.108 18.5644 127.054 18.599 127.008 18.6427C126.939 18.711 126.893 18.7974 126.874 18.8911C126.856 18.9848 126.866 19.0817 126.904 19.1697C126.928 19.2262 126.963 19.2775 127.008 19.3203C127.054 19.3639 127.108 19.3986 127.167 19.4224C127.229 19.4478 127.295 19.4606 127.362 19.46M127.362 18.3682C127.533 18.3681 127.697 18.433 127.819 18.5489C127.878 18.6046 127.924 18.671 127.956 18.7443C127.99 18.8196 128.007 18.9006 128.007 18.9824C128.007 19.0643 127.99 19.1453 127.956 19.2206C127.924 19.2935 127.877 19.3597 127.819 19.416C127.759 19.4713 127.69 19.516 127.614 19.5477C127.534 19.5805 127.448 19.5971 127.362 19.5967C127.274 19.5973 127.187 19.5806 127.106 19.5477C127.03 19.5167 126.96 19.472 126.9 19.416C126.842 19.3577 126.796 19.2892 126.764 19.2142C126.731 19.1389 126.714 19.0579 126.714 18.976C126.714 18.8942 126.731 18.8132 126.764 18.7379C126.796 18.6646 126.843 18.5982 126.902 18.5425C126.961 18.4855 127.031 18.4407 127.108 18.4108C127.189 18.3779 127.276 18.3612 127.364 18.3618M67.7909 16.1685C67.7909 15.0824 68.5262 14.1901 69.7279 14.1901C70.8764 14.1901 71.6514 15.044 71.6514 16.1685C71.6514 17.293 70.8764 18.1469 69.7279 18.1469C68.5262 18.1469 67.7909 17.2546 67.7909 16.1685ZM72.9605 16.1685V13.0776H71.572V13.8306C71.1316 13.2742 70.4636 12.9252 69.5552 12.9252C67.7656 12.9252 66.3611 14.2835 66.3611 16.17C66.3611 18.0565 67.7648 19.4148 69.5552 19.4148C70.4632 19.4148 71.1316 19.0655 71.572 18.5094V19.2597H72.959V16.1685H72.9605ZM119.876 16.1685C119.876 15.0824 120.612 14.1901 121.814 14.1901C122.963 14.1901 123.737 15.044 123.737 16.1685C123.737 17.293 122.963 18.1469 121.814 18.1469C120.612 18.1469 119.876 17.2546 119.876 16.1685ZM125.048 16.1685V10.5967H123.658V13.8306C123.217 13.2742 122.549 12.9252 121.641 12.9252C119.851 12.9252 118.447 14.2835 118.447 16.17C118.447 18.0565 119.851 19.4148 121.641 19.4148C122.549 19.4148 123.217 19.0655 123.658 18.5094V19.2597H125.048V16.1685ZM90.1937 14.1265C91.0885 14.1265 91.6631 14.6694 91.8098 15.6252H88.4967C88.6449 14.733 89.2048 14.1265 90.1941 14.1265M90.2217 12.9218C88.3504 12.9218 87.0413 14.2394 87.0413 16.1666C87.0413 18.1314 88.4029 19.4114 90.3147 19.4114C91.2764 19.4114 92.1572 19.1792 92.9322 18.5455L92.2518 17.5498C91.7164 17.9639 91.0348 18.1962 90.3941 18.1962C89.4993 18.1962 88.6846 17.7952 88.4842 16.6828H93.2255C93.2392 16.5156 93.2532 16.3469 93.2532 16.1662C93.2392 14.2398 92.0082 12.9214 90.2209 12.9214M106.985 16.1662C106.985 15.0801 107.72 14.1879 108.922 14.1879C110.07 14.1879 110.845 15.0417 110.845 16.1662C110.845 17.2908 110.07 18.1446 108.922 18.1446C107.72 18.1446 106.985 17.2524 106.985 16.1662M112.154 16.1662V13.0776H110.766V13.8306C110.324 13.2742 109.658 12.9252 108.75 12.9252C106.96 12.9252 105.556 14.2835 105.556 16.17C105.556 18.0565 106.959 19.4148 108.75 19.4148C109.658 19.4148 110.324 19.0655 110.766 18.5094V19.2597H112.155V16.1685L112.154 16.1662ZM99.1437 16.1662C99.1437 18.0407 100.492 19.4111 102.55 19.4111C103.512 19.4111 104.153 19.204 104.846 18.6743L104.179 17.5882C103.657 17.9507 103.11 18.1446 102.506 18.1446C101.397 18.1314 100.582 17.3559 100.582 16.1662C100.582 14.9766 101.397 14.2014 102.506 14.1879C103.108 14.1879 103.656 14.3817 104.179 14.7443L104.846 13.6582C104.152 13.1285 103.511 12.9214 102.55 12.9214C100.492 12.9214 99.1437 14.2914 99.1437 16.1662ZM117.044 12.9214C116.243 12.9214 115.721 13.284 115.36 13.8268V13.0776H113.984V19.2563H115.374V15.7928C115.374 14.7703 115.828 14.2022 116.736 14.2022C117.033 14.198 117.328 14.2509 117.604 14.3577L118.032 13.0912C117.725 12.9741 117.324 12.9225 117.043 12.9225M79.8252 13.5689C79.1573 13.1428 78.2368 12.9225 77.2214 12.9225C75.6037 12.9225 74.5622 13.6728 74.5622 14.9005C74.5622 15.908 75.3376 16.5295 76.7654 16.7234L77.4213 16.8138C78.1827 16.9173 78.5422 17.1112 78.5422 17.4602C78.5422 17.9379 78.0364 18.2105 77.0867 18.2105C76.125 18.2105 75.431 17.9131 74.9629 17.5641L74.3105 18.6118C75.0719 19.1547 76.0336 19.4137 77.0751 19.4137C78.9192 19.4137 79.9879 18.5734 79.9879 17.3969C79.9879 16.3108 79.1467 15.7427 77.7571 15.5488L77.1027 15.457C76.5016 15.3817 76.02 15.2646 76.02 14.8505C76.02 14.3987 76.474 14.1269 77.2358 14.1269C78.0508 14.1269 78.8398 14.4243 79.2265 14.6566L79.8276 13.5704L79.8252 13.5689ZM97.7412 12.9237C96.9401 12.9237 96.4184 13.2862 96.0593 13.8291V13.0776H94.6833V19.2563H96.0718V15.7928C96.0718 14.7703 96.5258 14.2022 97.4335 14.2022C97.7307 14.198 98.0258 14.2509 98.3018 14.3577L98.7298 13.0912C98.4224 12.9741 98.0217 12.9225 97.7404 12.9225M85.8924 13.0776H83.6219V11.2032H82.2183V13.0776H80.9231V14.3057H82.2183V17.1244C82.2183 18.558 82.7933 19.4118 84.4358 19.4118C85.0385 19.4118 85.7325 19.2311 86.1729 18.9341L85.7718 17.7836C85.3575 18.0158 84.9035 18.1329 84.5424 18.1329C83.8484 18.1329 83.6219 17.7188 83.6219 17.0988V14.3068H85.8924V13.0776ZM65.1333 19.2578V15.3802C65.1333 13.9198 64.1716 12.9372 62.6212 12.924C61.8062 12.9109 60.9655 13.1563 60.3768 14.0233C59.9364 13.3382 59.2424 12.924 58.2667 12.924C57.5847 12.924 56.9182 13.1179 56.3965 13.8415V13.0776H55.0068V19.2563H56.4074V15.8304C56.4074 14.7578 57.0221 14.1879 57.9714 14.1879C58.8934 14.1879 59.3599 14.7695 59.3599 15.8169V19.2556H60.7635V15.8297C60.7635 14.7571 61.4043 14.1871 62.326 14.1871C63.2741 14.1871 63.7265 14.7688 63.7265 15.8161V19.2548L65.1333 19.2578Z" fill="#231F20"/>
</svg>
