<svg width="48" height="48" viewBox="0 0 48 48" fill="none" xmlns="http://www.w3.org/2000/svg">
<path d="M30 46.3594H18C17.1295 46.3594 16.4708 45.5781 16.6125 44.7216L18.1125 35.7216C18.226 35.0437 18.8128 34.5469 19.5 34.5469H28.5C29.1872 34.5469 29.7741 35.0437 29.8875 35.7216L31.3875 44.7216C31.5291 45.5767 30.8718 46.3594 30 46.3594Z" fill="#8BB9FF"/>
<path d="M30 46.3594H24V34.5469H28.5C29.1872 34.5469 29.7741 35.0437 29.8875 35.7216L31.3875 44.7216C31.5291 45.5767 30.8718 46.3594 30 46.3594Z" fill="#6E75E2"/>
<path d="M34.4062 44.9531C34.4062 45.7294 33.7763 46.3594 33 46.3594H15C14.2237 46.3594 13.5938 45.7294 13.5938 44.9531C13.5938 44.1769 14.2237 43.5469 15 43.5469H33C33.7763 43.5469 34.4062 44.1769 34.4062 44.9531Z" fill="#6E75E2"/>
<path d="M34.4062 44.9531C34.4062 45.7294 33.7762 46.3594 33 46.3594H24V43.5469H33C33.7762 43.5469 34.4062 44.1769 34.4062 44.9531Z" fill="#000FBF"/>
<path d="M46.5938 5.85938V33.1406C46.5938 34.6941 45.3347 35.9531 43.7812 35.9531H4.21875C2.66531 35.9531 1.40625 34.6941 1.40625 33.1406V5.85938C1.40625 4.30594 2.66531 3.04688 4.21875 3.04688H43.7812C45.3347 3.04688 46.5938 4.30594 46.5938 5.85938Z" fill="#F6F9F9"/>
<path d="M46.5938 5.85938V33.1406C46.5938 34.6941 45.3347 35.9531 43.7812 35.9531H24V3.04688H43.7812C45.3347 3.04688 46.5938 4.30594 46.5938 5.85938Z" fill="#E2DFF4"/>
<path d="M43.7812 1.64062H4.21875C1.89281 1.64062 0 3.53344 0 5.85938V33.1406C0 35.4666 1.89281 37.3594 4.21875 37.3594H43.7812C46.1072 37.3594 48 35.4666 48 33.1406V5.85938C48 3.53344 46.1072 1.64062 43.7812 1.64062ZM45.1875 33.1406C45.1875 33.9159 44.5566 34.5469 43.7812 34.5469H4.21875C3.44344 34.5469 2.8125 33.9159 2.8125 33.1406V5.85938C2.8125 5.08406 3.44344 4.45312 4.21875 4.45312H43.7812C44.5566 4.45312 45.1875 5.08406 45.1875 5.85938V33.1406Z" fill="#6E75E2"/>
<path d="M48 5.85938V33.1406C48 35.4666 46.1072 37.3594 43.7812 37.3594H24V34.5469H43.7812C44.5566 34.5469 45.1875 33.9159 45.1875 33.1406V5.85938C45.1875 5.08406 44.5566 4.45312 43.7812 4.45312H24V1.64062H43.7812C46.1072 1.64062 48 3.53344 48 5.85938Z" fill="#000FBF"/>
<path d="M25.4062 3.04688V6.04688C25.4062 6.82312 24.7762 7.45312 24 7.45312C23.2237 7.45312 22.5938 6.82312 22.5938 6.04688V3.04688C22.5938 2.27062 23.2237 1.64062 24 1.64062C24.7762 1.64062 25.4062 2.27062 25.4062 3.04688Z" fill="#6E75E2"/>
<path d="M25.4062 3.04688V6.04688C25.4062 6.82312 24.7763 7.45312 24 7.45312V1.64062C24.7763 1.64062 25.4062 2.27062 25.4062 3.04688Z" fill="#000FBF"/>
<path d="M13.5 27.0469C12.7234 27.0469 12.0938 26.4172 12.0938 25.6406V16.5469C12.0938 15.7702 12.7234 15.1406 13.5 15.1406C14.2766 15.1406 14.9062 15.7702 14.9062 16.5469V25.6406C14.9062 26.4172 14.2766 27.0469 13.5 27.0469Z" fill="#FFB454"/>
<path d="M19.5 27.0469C18.7234 27.0469 18.0938 26.4173 18.0938 25.6406V21.0469C18.0938 20.2702 18.7234 19.6406 19.5 19.6406C20.2766 19.6406 20.9062 20.2702 20.9062 21.0469V25.6406C20.9062 26.4173 20.2766 27.0469 19.5 27.0469Z" fill="#E27A4E"/>
<path d="M33.75 27.7031C38.2546 27.7031 41.9062 24.0514 41.9062 19.5469C41.9062 15.0423 38.2546 11.3906 33.75 11.3906C29.2454 11.3906 25.5938 15.0423 25.5938 19.5469C25.5938 24.0514 29.2454 27.7031 33.75 27.7031Z" fill="#FFB454"/>
<path d="M41.9062 19.5469C41.9062 24.0441 38.2471 27.7031 33.7499 27.7031C31.5712 27.7031 29.5237 26.8547 27.9824 25.3144L33.7499 19.5469V18.1406H40.4999C41.2762 18.1406 41.9062 18.7706 41.9062 19.5469Z" fill="#00CB75"/>
<path d="M41.9062 19.5469H33.75V11.3906C38.2472 11.3906 41.9062 15.0497 41.9062 19.5469Z" fill="#6E75E2"/>
<path d="M7.5 27.0469C6.72337 27.0469 6.09375 26.4172 6.09375 25.6406V12.0469C6.09375 11.2702 6.72337 10.6406 7.5 10.6406C8.27663 10.6406 8.90625 11.2702 8.90625 12.0469V25.6406C8.90625 26.4172 8.27663 27.0469 7.5 27.0469Z" fill="#ACE233"/>
<path d="M6.09375 25.6406V27.0469C6.09375 27.8235 6.72337 28.4531 7.5 28.4531H19.5C20.2766 28.4531 20.9062 27.8235 20.9062 27.0469V25.6406C19.0358 25.6406 7.95675 25.6406 6.09375 25.6406Z" fill="#E2DFF4"/>
</svg>
