<svg width="48" height="50" viewBox="0 0 48 50" fill="none" xmlns="http://www.w3.org/2000/svg">
<path d="M47.3505 30.0097C47.3505 30.0097 46.0616 32.2949 45.8856 32.5585C45.505 33.2618 44.5968 33.496 43.8935 33.1151C43.6006 32.9394 41.6377 31.8261 41.4033 31.6503C40.6122 32.3242 39.704 32.8809 38.6494 33.2617V35.2539C38.6494 36.0741 38.005 36.7188 37.1846 36.7188H34.2549C33.4345 36.7188 32.79 36.0741 32.79 35.2539V33.2617C31.7354 32.8809 30.8272 32.3242 30.0361 31.6503L25.4658 34.1113L21.2178 34.7851L22.5068 29.0723L27.0772 26.6112C26.9894 26.0839 26.9307 25.5565 26.9307 24.9999C26.9307 24.4433 26.9894 23.9159 27.1064 23.3886L22.5361 20.9275L21.042 15.5368L25.4952 15.8886L30.0362 18.3494C30.8566 17.6463 31.7648 17.119 32.7901 16.7381V14.7461C32.7901 13.9257 33.4346 13.2812 34.255 13.2812H37.1847C38.0051 13.2812 38.6495 13.9257 38.6495 14.7461V16.7383C39.7042 17.1191 40.583 17.6758 41.3741 18.3496C41.3741 18.3496 41.3741 18.3496 41.4034 18.3496C41.6963 18.1738 43.6594 17.0605 43.8936 16.8848C44.5969 16.5039 45.4757 16.7383 45.8857 17.4121C45.8857 17.4121 47.1748 19.6974 47.3506 19.9609C47.7607 20.6641 47.5266 21.5723 46.8232 21.9824C46.501 22.1289 44.5675 23.213 44.3331 23.3888C44.4502 23.9161 44.5089 24.4435 44.5089 25.0001C44.5089 25.5567 44.4502 26.0841 44.3624 26.6114C44.6847 26.7579 46.589 27.8418 46.8232 28.0176C47.5265 28.4276 47.7606 29.3065 47.3505 30.0097Z" fill="#979FEF"/>
<path d="M47.3505 30.0097C47.3505 30.0097 46.0616 32.2949 45.8856 32.5585C45.505 33.2618 44.5968 33.496 43.8935 33.1151C43.6006 32.9394 41.6377 31.8261 41.4033 31.6503C40.6122 32.3242 39.704 32.8809 38.6494 33.2617V35.2539C38.6494 36.0741 38.005 36.7188 37.1846 36.7188H35.7197V13.2812H37.1846C38.005 13.2812 38.6494 13.9257 38.6494 14.7461V16.7383C39.7041 17.1191 40.5829 17.6758 41.374 18.3496C41.374 18.3496 41.374 18.3496 41.4033 18.3496C41.6962 18.1738 43.6593 17.0605 43.8935 16.8848C44.5968 16.5039 45.4756 16.7383 45.8856 17.4121C45.8856 17.4121 47.1747 19.6974 47.3505 19.9609C47.7606 20.6641 47.5265 21.5723 46.8231 21.9824C46.5009 22.1289 44.5674 23.213 44.333 23.3888C44.4501 23.9161 44.5088 24.4435 44.5088 25.0001C44.5088 25.5567 44.4501 26.0841 44.3623 26.6114C44.6846 26.7579 46.5889 27.8418 46.8231 28.0176C47.5265 28.4276 47.7606 29.3065 47.3505 30.0097Z" fill="#737EE6"/>
<path d="M23.9127 43.1935C23.9127 43.1935 22.6239 45.4787 22.4479 45.7423C22.0672 46.4456 21.159 46.6798 20.4557 46.2989C20.1628 46.1231 18.1999 45.0099 17.9656 44.8341C17.1745 45.508 16.2662 46.0354 15.2117 46.4455V48.5354C15.2117 49.3556 14.5672 50.0002 13.7468 50.0002H10.8171C9.99672 50.0002 9.35229 49.3556 9.35229 48.5354V46.4455C8.2976 46.0354 7.38949 45.508 6.59838 44.8341C6.30551 45.0099 4.34242 46.1231 4.10824 46.2989C3.40492 46.6798 2.49682 46.4455 2.11606 45.7423C1.94008 45.4494 0.826993 43.4572 0.651212 43.2228C0.241055 42.5196 0.475235 41.6408 1.14916 41.2306C1.17846 41.2306 3.37572 39.9708 3.6393 39.795C3.5515 39.2384 3.49281 38.7403 3.49281 38.1837C3.49281 37.6271 3.5515 37.0997 3.66859 36.5724C3.34633 36.4258 1.41264 35.3418 1.17846 35.166C0.475137 34.7559 0.240958 33.8477 0.651114 33.1445C0.826895 32.8517 1.93998 30.8595 2.11596 30.625C2.49662 29.9219 3.37572 29.6875 4.07875 30.0684C4.07875 30.0684 6.33451 31.3574 6.59828 31.5332C7.41869 30.8301 8.3269 30.3028 9.35219 29.9219C9.35219 29.9219 9.35219 25.2929 9.35219 25L12.2819 22.0703L15.2116 25C15.2116 25 15.2116 29.6288 15.2116 29.9219C16.2369 30.3027 17.1451 30.8301 17.9655 31.5332L22.5065 29.0724L25.4655 34.1113L20.8952 36.5724C21.0122 37.0997 21.0709 37.6271 21.0709 38.1837C21.0709 38.7403 21.0122 39.2677 20.9245 39.795C21.2467 39.9415 23.151 41.0254 23.3853 41.2012C24.0887 41.6114 24.3229 42.4903 23.9127 43.1935Z" fill="#FF641A"/>
<path d="M23.913 43.1933C23.913 43.1933 22.6241 45.4785 22.4481 45.7421C22.0675 46.4454 21.1593 46.6796 20.456 46.2987C20.1631 46.1229 18.2002 45.0097 17.9658 44.8339C17.1747 45.5078 16.2665 46.0352 15.2119 46.4453V48.5352C15.2119 49.3554 14.5675 50 13.7471 50H12.2822V22.0703L15.2119 25C15.2119 25 15.2119 29.6288 15.2119 29.9219C16.2372 30.3027 17.1454 30.8301 17.9658 31.5332L22.5068 29.0724L25.4658 34.1113L20.8955 36.5724C21.0126 37.0997 21.0713 37.6271 21.0713 38.1837C21.0713 38.7403 21.0126 39.2677 20.9248 39.795C21.2471 39.9415 23.1514 41.0254 23.3856 41.2012C24.089 41.6112 24.3231 42.4901 23.913 43.1933Z" fill="#F03800"/>
<path d="M25.4949 15.8887L22.5359 20.9276L17.9656 18.4666C17.5554 18.8184 17.1161 19.1112 16.6765 19.4041C16.2079 19.6679 15.7096 19.9022 15.2117 20.078C15.2117 20.078 15.2117 24.7068 15.2117 24.9999H9.35229C9.35229 24.9999 9.35229 20.3709 9.35229 20.078C8.2976 19.6972 7.38949 19.1405 6.59838 18.4666C6.30551 18.6424 4.34242 19.7557 4.10824 19.9314C3.40492 20.3123 2.49682 20.078 2.11606 19.3748C1.94008 19.0819 0.826993 17.0897 0.651212 16.8553C0.241055 16.1521 0.475235 15.2733 1.14916 14.8631C1.17846 14.8631 3.37572 13.6033 3.6393 13.4275C3.5515 12.9002 3.49281 12.3729 3.49281 11.8162C3.49281 11.2596 3.5515 10.7322 3.66859 10.2049C3.34633 10.0583 1.41264 8.97432 1.17846 8.79854C0.475137 8.38838 0.240958 7.48018 0.651114 6.77705C0.826895 6.48418 1.93998 4.49199 2.11596 4.25752C2.49662 3.55439 3.37572 3.32002 4.07875 3.70088C4.07875 3.70088 6.33451 4.98994 6.59828 5.16572C7.41869 4.4626 8.3269 3.93535 9.35219 3.55439V1.46484C9.35219 0.644434 9.99662 0 10.817 0H13.7467C14.5671 0 15.2116 0.644434 15.2116 1.46484V3.55469C16.2369 3.93555 17.116 4.46289 17.9362 5.16602C17.9362 5.16602 17.9362 5.16602 17.9655 5.16602C18.2583 4.99023 20.2214 3.87695 20.4556 3.70117C21.1589 3.32031 22.0377 3.55469 22.4478 4.22852C22.4478 4.22852 23.7369 6.51377 23.9126 6.77734C24.3228 7.48047 24.0886 8.38867 23.3853 8.79883C23.063 8.94531 21.1295 10.0294 20.8952 10.2052C21.0122 10.7325 21.0709 11.2599 21.0709 11.8165C21.0709 12.3731 21.0122 12.9005 20.9245 13.4278L25.4949 15.8887Z" fill="#FFDA2D"/>
<path d="M25.4951 15.8887L22.5361 20.9276L17.9658 18.4666C17.5557 18.8184 17.1163 19.1112 16.6768 19.4041C16.2081 19.6679 15.7099 19.9022 15.2119 20.078C15.2119 20.078 15.2119 24.7068 15.2119 24.9999H12.2822V0H13.7471C14.5675 0 15.2119 0.644434 15.2119 1.46484V3.55469C16.2372 3.93555 17.1163 4.46289 17.9365 5.16602C17.9365 5.16602 17.9365 5.16602 17.9658 5.16602C18.2587 4.99023 20.2218 3.87695 20.456 3.70117C21.1593 3.32031 22.0381 3.55469 22.4481 4.22852C22.4481 4.22852 23.7372 6.51377 23.913 6.77734C24.3231 7.48047 24.089 8.38867 23.3856 8.79883C23.0634 8.94531 21.1299 10.0294 20.8955 10.2052C21.0126 10.7325 21.0713 11.2599 21.0713 11.8165C21.0713 12.3731 21.0126 12.9005 20.9248 13.4278L25.4951 15.8887Z" fill="#FDBF00"/>
<path d="M41.1396 21.0448C40.583 20.459 39.6457 20.459 39.089 21.0448L35.7197 24.3847L34.2549 25.8495L32.3505 23.9745C31.7938 23.3887 30.8565 23.3887 30.2998 23.9745C29.7139 24.5312 29.7139 25.4687 30.2998 26.0253L33.2295 28.955C33.4931 29.2481 33.8739 29.3946 34.2548 29.3946C34.6356 29.3946 35.0165 29.2481 35.2801 28.955L35.7196 28.5157L41.1395 23.0956C41.7256 22.539 41.7256 21.6015 41.1396 21.0448Z" fill="#47568C"/>
<path d="M17.7021 34.2284C17.1455 33.6426 16.2082 33.6426 15.6515 34.2284L12.2822 37.5683L10.8174 39.0331L8.91299 37.1581C8.35635 36.5723 7.41904 36.5723 6.8623 37.1581C6.27637 37.7148 6.27637 38.6523 6.8623 39.2089L9.79199 42.1386C10.0556 42.4317 10.4364 42.5782 10.8173 42.5782C11.1981 42.5782 11.579 42.4317 11.8426 42.1386L12.2821 41.6992L17.702 36.2792C18.2881 35.7226 18.2881 34.7851 17.7021 34.2284Z" fill="#47568C"/>
<path d="M17.7021 7.86125C17.1455 7.27542 16.2082 7.27542 15.6515 7.86125L12.2822 11.2011L10.8174 12.6659L8.91299 10.7909C8.35635 10.2051 7.41904 10.2051 6.8623 10.7909C6.27637 11.3476 6.27637 12.2851 6.8623 12.8417L9.79199 15.7714C10.0556 16.0645 10.4364 16.211 10.8173 16.211C11.1981 16.211 11.579 16.0645 11.8426 15.7714L12.2821 15.3321L17.702 9.91204C18.2881 9.3554 18.2881 8.4179 17.7021 7.86125Z" fill="#47568C"/>
<path d="M17.7021 9.91204L12.2822 15.3321V11.2011L15.6515 7.86125C16.2081 7.27542 17.1454 7.27542 17.7021 7.86125C18.288 8.4179 18.288 9.3554 17.7021 9.91204Z" fill="#2C3B73"/>
<path d="M17.7021 36.2792L12.2822 41.6992V37.5683L15.6515 34.2284C16.2081 33.6426 17.1454 33.6426 17.7021 34.2284C18.288 34.7851 18.288 35.7226 17.7021 36.2792Z" fill="#2C3B73"/>
<path d="M41.1396 23.0956L35.7197 28.5157V24.3847L39.089 21.0448C39.6456 20.459 40.5829 20.459 41.1396 21.0448C41.7255 21.6015 41.7255 22.539 41.1396 23.0956Z" fill="#2C3B73"/>
</svg>
