<svg width="42" height="50" viewBox="0 0 42 50" fill="none" xmlns="http://www.w3.org/2000/svg">
<path d="M21 50C9.81045 50 0.707031 40.8966 0.707031 29.707V10.8789C0.707031 10.0699 1.36289 9.41406 2.17188 9.41406C10.8784 9.41406 19.8743 0.518945 19.9642 0.429102C20.239 0.154395 20.6115 0 21 0C21.3882 0 21.7605 0.154102 22.0353 0.428418C22.1252 0.518359 31.1422 9.41406 39.8281 9.41406C40.6371 9.41406 41.293 10.0699 41.293 10.8789V29.707C41.293 40.8966 32.1896 50 21 50Z" fill="#FA5D0F"/>
<path d="M39.8282 9.41406C31.1423 9.41406 22.1254 0.518359 22.0354 0.428418C21.7606 0.154102 21.3883 0 21.0001 0C20.9406 0 20.8817 0.00488281 20.8232 0.0120117V49.9978C20.8822 49.9982 20.941 50 21.0001 50C32.1896 50 41.2931 40.8966 41.2931 29.707V10.8789C41.2931 10.0699 40.6372 9.41406 39.8282 9.41406Z" fill="#D6475C"/>
<path d="M21 44.1406C13.0413 44.1406 6.56641 37.6657 6.56641 29.707V15.9344C6.56641 15.2712 7.01201 14.6907 7.65264 14.5193C10.8281 13.6696 14.1594 12.0914 17.5539 9.82832C18.4061 9.26025 19.2657 8.64453 20.1092 7.99834C20.6349 7.59561 21.3652 7.59561 21.8909 7.99834C22.7343 8.64453 23.594 9.26016 24.4462 9.82832C27.8407 12.0913 31.172 13.6695 34.3475 14.5192C34.9881 14.6906 35.4337 15.2711 35.4337 15.9343V29.707C35.4336 37.6657 28.9587 44.1406 21 44.1406Z" fill="white"/>
<path d="M34.3476 14.5191C31.1721 13.6694 27.8408 12.0912 24.4463 9.82819C23.5941 9.26003 22.7344 8.64431 21.891 7.99821C21.5787 7.75895 21.1942 7.66296 20.8232 7.70808V44.1383C20.8822 44.1389 20.941 44.1405 21.0001 44.1405C28.9588 44.1405 35.4337 37.6656 35.4337 29.7069V15.9341C35.4338 15.271 34.9882 14.6905 34.3476 14.5191Z" fill="#E3FBFF"/>
<path d="M25.3197 25.0883C25.3197 22.6089 23.3025 20.5918 20.8231 20.5918C18.3438 20.5918 16.3267 22.6089 16.3267 25.0883C16.3267 27.0549 17.5962 28.7295 19.3583 29.3385V33.8269C19.3583 34.6358 20.0142 35.2917 20.8231 35.2917C21.6321 35.2917 22.288 34.6358 22.288 33.8269V29.3385C24.0502 28.7294 25.3197 27.0549 25.3197 25.0883Z" fill="#414952"/>
<path d="M20.8232 20.5918V35.2917C21.6322 35.2917 22.2881 34.6358 22.2881 33.8269V29.3385C24.0503 28.7294 25.3198 27.0548 25.3198 25.0883C25.3197 22.609 23.3026 20.5918 20.8232 20.5918Z" fill="#23272B"/>
</svg>
